<svg id="Layer_2" data-name="Layer 2" xmlns="http://www.w3.org/2000/svg" viewBox="0 0 1525.68 889.98"><defs><style>.cls-1{fill:#e5e0d5;}.cls-2{fill:#f5f6ee;}.cls-3{fill:#47afa7;}</style></defs><path class="cls-1" d="M36.59,394.55c0,.71-.2,1.26-1,1.41a1.2,1.2,0,0,1-1.56-1.28,1.15,1.15,0,0,1,1.2-1.21A1.18,1.18,0,0,1,36.59,394.55Z"/><path class="cls-1" d="M85.44,409.5c-.27.11-.61.36-.79.27s-.23-.5-.34-.77c.27-.1.61-.35.79-.27S85.33,409.23,85.44,409.5Z"/><path class="cls-1" d="M275.93,727.24l-.94.93c-.58-.35-1.14-.87-.53-1.47S275.58,726.66,275.93,727.24Z"/><path class="cls-2" d="M1382.51,164.72a19.34,19.34,0,0,1-3,1.07,4,4,0,0,1-4.19-2,1.88,1.88,0,0,1,0-1.8c1.59-1.51,2.69.18,3.87.86C1380.18,163.39,1381.63,162.78,1382.51,164.72Z"/><path class="cls-2" d="M1307.77,155.89a2,2,0,0,1-1.72-2.52c.26-1.21.54-2.87,2.27-2.58,1.27.2,1.55,1.56,1.44,2.76S1309.17,155.76,1307.77,155.89Z"/><path class="cls-2" d="M1378.63,150.5c0,.66-.12,1.42-1,1.26a2.06,2.06,0,0,1-1.33-1.1c-.26-.64.14-1.22,1-1.22A1.21,1.21,0,0,1,1378.63,150.5Z"/><path class="cls-2" d="M1396.85,160.21c.57-.61.88-1.18,1.36-1.42s1.36-.1,1.16.76a2.59,2.59,0,0,1-1.17,1.29C1398,161,1397.51,160.53,1396.85,160.21Z"/><path class="cls-3" d="M610.6,277.43a150,150,0,0,1-3.8-49c6-65.62,57.51-124.55,121.76-139.17s136.23,16.21,170,72.8,26.68,134.57-16.7,184.16c-43.73,50-120.79,67.21-181.59,40.46C655.47,367,622.11,324.75,610.6,277.43ZM790.88,179v-.17c-14.83,0-29.66.09-44.49-.07-3.62,0-5.16,1.08-6.1,4.75-5.59,21.75-11.54,43.4-17.28,65.11-4.56,17.25-9,34.53-13.49,51.8-1.47,5.69-1.33,5.81,4.7,5.85,6.33,0,12.68-.16,19,.14,3.84.18,5.79-1.19,6.72-4.89,3-11.94,6.18-23.83,9.27-35.75,4.4-16.91,8.85-33.81,13.1-50.76,1.05-4.18,2.85-6.22,7.53-5.77a124.72,124.72,0,0,0,15,.12c2.85-.07,4,.57,3.1,3.71-1.72,6.07-3.1,12.25-4.68,18.36q-7,27-14.14,54c-1,3.68.28,4.8,3.87,4.72,6.49-.14,13-.32,19.49.13,4.89.34,6.56-1.7,7.67-6.17,5.81-23.4,11.94-46.71,18-70.06.53-2.07.73-4.42,3.65-4.63,10.46-.77,20.71,8.47,17.23,19.13-4.21,12.92-6.83,26.36-10,39.6-1.2,5-.43,5.86,4.74,5.92,6.83.07,13.67-.16,20.49.09,3.43.12,4.71-1.46,5.44-4.42,3.66-14.86,7.49-29.67,11.08-44.55,2-8.3,1.65-16.62-1.89-24.44C862.16,186,849.47,180,834.37,179.14,819.92,178.34,805.38,179,790.88,179Zm-108-.87V178c-6.33,0-12.66-.11-19,0-4.71.11-7.55,2.88-8,7.31-.35,3.79,2.8,7.82,6.86,8.61a21.94,21.94,0,0,0,4,.21l35.46.19c5.78,0,5.82,0,4.4,5.82-2.22,9-4.31,18.11-6.81,27.08-3,10.92-4.82,11,8.94,11,3.44,0,4.9-1.09,5.74-4.54,4.13-16.78,8.51-33.5,12.94-50.21.85-3.2.28-4.77-3.24-4.83-2.15,0-4.3-.48-6.45-.49C706.09,178.07,694.46,178.1,682.84,178.1ZM684.55,200v-.06c-3.5,0-7,0-10.5,0-5.75.08-9.16,2.88-9.28,7.55-.12,4.86,3.91,8.54,9.58,8.66,3.83.08,7.66,0,11.49.06,12,.06,12,.06,13.94-11.74,0-.17.07-.33.1-.49.5-2.68-.3-4.13-3.33-4C692.55,200.06,688.55,200,684.55,200Zm.33,21.92c-2.17,0-4.34-.1-6.49,0-5.29.3-7.8,2.86-7.78,7.74a8.18,8.18,0,0,0,8,8.41c2.33.09,4.69-.24,7,.06,4.53.59,6.46-1.34,7.44-5.73C695.43,221.78,695.62,221.82,684.88,221.87Z"/><path class="cls-3" d="M390.3,578.24l-1.11,33.67c-.19,5.85-.48,12-3.64,17-5.58,8.7-20.08,9.42-26.51,1.33-4.77-6-4.73-14.42-4.45-22.09l1.71-48.59c.41-11.76.65-24.27-5.4-34.37-9.33-15.59-33.74-19.16-47.14-6.88C291.19,529.78,290.36,549,290.41,566l.12,39.79c0,9.32-.45,19.84-7.38,26.06s-19.68,4.71-24.91-3.21c-3.76-5.71-3.66-13-3.42-19.87l1.9-54.69c.28-8,.53-16.22-2.24-23.72A30.94,30.94,0,0,0,205,517.84c-13.07,11.51-14.12,31.16-14.2,48.58L190.62,605c0,7.45-.16,15.24-3.68,21.8-6.13,11.41-25.35,13.18-30.68.05-2-4.82-1.8-10.2-1.62-15.4l4-111.71c.2-5.42.46-11.09,3.15-15.81,4.72-8.29,17.15-10.87,24.79-5.15,1.58,1.18,3,2.66,4.83,3.38,3.52,1.38,7.4-.42,10.89-1.88,22.29-9.31,49.75-4.65,67.72,11.5,1.6,1.43,3.34,3,5.49,3.11s4.1-1.53,5.8-3c16.74-14,40.39-19.67,61.51-14s39,22.57,45.17,43.54c3.73,12.67,3.33,26.13,2.9,39.32Z"/><path class="cls-3" d="M1297.18,568.73l-46-.47a6.22,6.22,0,0,0-3.84.81c-2.15,1.6-1.35,5-.15,7.37,10.57,21,38,31.77,60.07,23.43,6.47-2.44,12.42-6.28,19.13-7.92s14.88-.39,18.68,5.38c3,4.53,2.4,10.73-.27,15.45s-7.09,8.18-11.68,11.06c-28.15,17.66-70.22,16.88-95.12-6s-37.17-58.81-24.07-91.38c12.69-31.52,48.17-52.33,81.8-47.46s61.9,35.34,63.7,69.27c.38,7-.91,15.2-7,18.8-3.52,2.1-7.85,2.12-12,2.08ZM1286.86,541v.41h38.43c5.69,0,5.92-.29,3.17-5.48-7-13.28-18.48-21.18-32.47-25.48-21.39-6.58-44.41,4.79-51.66,25.16-1.8,5.07-1.61,5.38,3.6,5.39Z"/><path class="cls-3" d="M458.18,592.8a86.12,86.12,0,0,1-7.77-24c-4.35-27.55,6.48-57.12,27.91-75S531.08,470.67,557,481s45.19,35.93,47.4,63.73c.42,5.25.14,10.94-3,15.15-4.73,6.28-13.76,6.87-21.61,6.91l-89.7.44c-1.43,0-3.06.11-4,1.23-1,1.28-.52,3.16.12,4.68,9.89,23.64,40.78,35.84,64.15,25.33,5.73-2.58,11-6.28,17-8.16s13.33-1.49,17.55,3.18c3.88,4.29,3.91,11.1,1.36,16.29s-7.21,9-12,12.22c-22.24,14.6-53.57,18.28-78.54,8.69C479.54,624.47,466.26,609.38,458.18,592.8Zm71.39-53.11v-.17c13.5,0,27-.1,40.49.06,4,0,4.67-1.23,3.11-4.66-4.6-10.15-12.36-17.15-21.94-22.4-24.06-13.21-54.08-3.42-64.47,21-2.46,5.8-2.27,6.13,3.83,6.13Q510.09,539.71,529.57,539.69Z"/><path class="cls-3" d="M1029.1,532.7l-.95-28.12c-.23-7-.32-14.53,3.65-20.29,5.8-8.43,20-9,26.44-1,4.62,5.77,4.86,13.79,4.88,21.19l.15,48.65c0,11.86.28,24.44,6.67,34.44a31.46,31.46,0,0,0,54.82-3.21c4.47-9.21,4.19-19.92,3.81-30.15l-1.64-45.09c-.25-6.78-.46-13.77,1.93-20.12s8.07-12,14.85-12.11,12.76,5.26,15.4,11.55,2.68,13.31,2.68,20.13v46.82c0,15.3-.1,31.12-6.25,45.13-7.79,17.75-25.11,30.61-44.13,34.37-31.1,6.15-67.32-10.77-77-42.08-3.66-11.89-4.11-24.5-4.53-36.94Z"/><path class="cls-3" d="M894,593.63l2,1.09a17.13,17.13,0,0,0,2.79,2c16.95,7.73,33.13,5.71,48.36-4.42,9-6,19.22-5,25.27,3,5.47,7.29,3.37,18.79-5.1,24.65-20.49,14.17-42.91,19-67.44,13.27-10.58-2.47-19.63-8-28.93-13.18h0a10.71,10.71,0,0,0-1.52-1.92,89,89,0,0,1-18.89-20.94c-14-21.68-15.68-44.81-7.83-68.59,13.19-40,58.86-62,98.74-48.55,9.9,3.33,18.59,8.8,27.42,14.1l0,0c1.14,2,2.41,4,3.41,6.06,4.53,9.52.17,20.17-9.55,23-6.24,1.84-11.65-.23-16.85-3.87-11.76-8.25-24.83-11.19-38.9-8-19.77,4.48-37.76,23.4-34.88,49.54C873.65,575.88,881.87,585.92,894,593.63Z"/><path class="cls-3" d="M676.29,555.37l.74-57.79c.07-5.82.3-12.09,3.87-16.68,4.31-5.53,12.63-6.82,19.13-4.2s11.28,8.42,14.26,14.75c8-6.27,16.14-12.68,25.81-15.66s21.32-1.82,28.3,5.5,6.43,21.39-2.53,26.11c-4,2.08-8.62,2.11-13,2.86-17.62,3-31.31,18.08-37.39,34.89s-5.79,35.18-4.63,53c.6,9.33,1.3,19.24-3.12,27.48-3.92,7.31-12.68,11.56-20.65,9-10.06-3.3-11.6-13.75-11.48-23Z"/><path class="cls-3" d="M1075.76,769.33c0,4.33,0,8.67,0,13,.06,6,.56,6.36,6.4,4.64,3.19-.94,6.35-2,9.46-3.21,2.47-1,3.16-.11,3.4,2.36.46,4.85-.5,8.07-6,9.55-9.15,2.45-18.14,5.46-27.44,7.46-3.39.73-4.44-.72-4.3-3.31s-2.83-7.06,2.48-7.44,6.25-2.69,6.17-7.36c-.45-26.81-.51-53.62-1.07-80.43-.11-5.26,1.62-6.42,6.52-6.31,14.11.31,28.23.24,42.35.08,3.91-.05,5.16,1.23,5.17,5.18,0,13.81.34,27.63.77,41.44.12,3.94-1.18,5.43-5.13,5.15s-8-.13-12-.12c-1.16,0-2.92-.28-3.38.34-3.58,4.76,1,8.59,1.92,12.8.6,2.67,2.79,2.66,5.15,1.19a45.62,45.62,0,0,0,9.35-8.21c4-4.35,5.24.6,7.44,2,2.75,1.7,2.68,3.71.31,6a64.93,64.93,0,0,1-11.44,8.81c-2.92,1.8-2.91,3.63-.78,6a65.43,65.43,0,0,0,16.09,13.3c4.21,2.47,2,4.77.47,7.36-1.58,2.76-3.09,4.62-6.58,2.16-15.91-11.22-27.28-25.63-32.38-44.69-.79-2.94-.69-6.82-5.54-7.08-6.87-.36-7.45,0-7.5,6.82,0,4.16,0,8.33,0,12.49Zm16.58-50.15v.06c4,0,8-.14,11.93,0,3.24.15,5.14-.66,4.69-4.37-.36-3,1.23-7.06-4.36-7-8.45.16-16.9.26-25.35,0-4.25-.1-4.39,2.32-4.39,5.4s0,6.05,4.55,5.83C1083.71,719,1088,719.18,1092.34,719.18Zm-.47,21.21v0c4.48,0,9-.13,13.44,0,3.73.14,4.14-2.1,3.68-4.82s1.85-6.88-3.74-6.83c-8.63.08-17.26.16-25.89,0-4.17-.07-4,2.58-3.81,5.31s-1.17,6.43,3.87,6.29C1083.56,740.3,1087.72,740.39,1091.87,740.39Z"/><path class="cls-3" d="M1024.79,742.51c0-10.09.09-24.25-.06-38.4,0-3.57.88-5.09,4.73-5,9,.22,18,.16,27,0,3.26-.07,4.4,1.07,4.37,4.3,0,7.32-3.24,13.88-4.71,20.85a25.49,25.49,0,0,1-1.48,4.76c-2.09,4.92-1.43,9.24,1,14.14,3.89,7.87,6.92,16.1,5.32,25.41-1.72,10.07-9.84,12.43-17.3,12.07-4.77-.23-3.9-5.31-4.45-8.33-.6-3.28,2.75-1.81,4.37-2,5.11-.53,7.24-2.46,7.3-7.59.1-7.38-2.47-14.07-6.29-20.21a10,10,0,0,1-1.06-9.71c2.31-6.23,3.81-12.75,5.74-19.12,1-3.21,0-4.55-3.45-4.73-11-.58-11.21-.67-10.82,10.46.92,26.3.63,52.62.76,78.93,0,2.25,2,6.16-3.18,6.12-4.07,0-6.82,0-7-6C1025,781.19,1025.43,763.88,1024.79,742.51Z"/><path class="cls-3" d="M1312.42,710.58c-13,0-25.28-.16-37.61.08-4.6.09-5.46-1.84-5.58-6-.13-4.56,1.87-5.1,5.66-5.06q44.46.51,88.93.66c4.22,0,5.44,1.53,5.51,5.48.31,16.65.55,33.31,1.37,49.93.62,12.49.82,25,.9,37.46,0,7.76-3.82,11.52-11.67,11.68q-7,.15-14,.07c-3.12,0-7.63-7.42-6.42-10.33.61-1.47,1.91-1.1,3-1.1,3.67,0,7.33.19,11,.15,5,0,6.64-1.68,6.46-6.67-.85-23.79-1.82-47.57-2.62-71.36-.1-3-1.17-4-4.08-4.27C1339.45,710.16,1325.62,711.25,1312.42,710.58Z"/><path class="cls-3" d="M1306.84,744.4c8.16,0,16.33.12,24.49-.06,3.65-.07,4.93,1.24,5,4.93.15,10.32-.28,20.66.79,31,.26,2.48-.74,3.7-3.39,3.67q-25.49-.24-51-.34c-2.91,0-4.21-1.35-4.28-4.25-.26-10.31-.5-20.63-1-30.94-.16-3.46,1.27-4.22,4.37-4.17,8.33.15,16.66,0,25,0Zm.56,29.07v-.06h13.94c2.2,0,4-.46,3.87-3.27-.15-3.81-.15-7.63-.39-11.43-.17-2.69-1.55-4.08-4.53-4-5.8.16-11.62,0-17.42,0-14.32-.07-14.22-.07-13.35,14.14.21,3.5,1.74,4.67,4.94,4.62C1298.77,773.42,1303.09,773.47,1307.4,773.47Z"/><path class="cls-3" d="M1307.31,732.06c-10.46,0-20.92,0-31.38,0-5.39,0-4.19-4-4.48-7.06-.35-3.74,2.35-3.29,4.67-3.26,19.76.19,39.51.51,59.26.49,4.41,0,4.18,2.39,4.34,5.37.17,3.34-.4,5.26-4.49,5.15-9.3-.25-18.61-.08-27.91-.08Z"/><path class="cls-3" d="M1189.79,785.32c9.13-.64,19.41-1.5,29.7-2,4.69-.25,4.89-2.09,3-5.66-2.62-4.83-5.08-9.74-7.44-14.7-.77-1.62-3.48-3.84.2-5.12,3.08-1.08,6.49-5,9.58-.33,6.22,9.47,11,19.71,15.6,30.06,1.48,3.34,2.71,6.81,4.36,10.06s.49,4.53-2.67,5a24.56,24.56,0,0,0-3.86,1c-3,1-4.71.3-6-3-3.32-8.84-2.56-7.9-11.72-7-20.68,2.07-41.4,3.71-62.18,4.31-1.7.05-4.25,1-4.91-1.16-.92-2.93-2.42-6-1.34-9.21.69-2,3-1.44,4.41-1.22,6.42,1,9.42-2.32,12-7.75a347.24,347.24,0,0,0,17.2-42.41c1.24-3.87,2.92-4.65,6.52-3.18,7.08,2.89,7.19,2.82,4.49,10.16-4.66,12.63-9.63,25.14-16.09,37-2.61,4.79-2.42,5.13,3,5.18Z"/><path class="cls-3" d="M1208.43,697.28c4.32,0,8.64.1,13,0,2.21-.07,3.21.84,4,2.83a102.41,102.41,0,0,0,24,35.73c1.15,1.13,3.73,2.26,2.13,4.38-2.17,2.87-3.13,6.86-6.73,8.41-1.56.67-2.56-1.21-3.59-2.23a105.62,105.62,0,0,1-23.56-34.91c-1.35-3.28-3.21-4.07-6.4-4.05-5.15,0-10.3-.57-15.45-.47-4.59.09-3.23-3.08-3.49-5.48-.31-2.75.3-4.43,3.68-4.22C1200.12,697.48,1204.28,697.29,1208.43,697.28Z"/><path class="cls-3" d="M1181.11,705.21a161.45,161.45,0,0,1-6.61,18.39c-4,8.66-9.44,16.31-15.37,23.72-2.34,2.93-4,2.88-6.22.28a9.12,9.12,0,0,0-2.2-2c-3.53-2.07-2.74-4.29-.48-6.79,7.65-8.45,13.78-17.84,17.37-28.75.46-1.42.92-2.83,1.46-4.22.74-1.9.32-5,2.94-5.2,2.92-.23,5.82,1,8.44,2.54C1181.09,703.54,1181.29,704.14,1181.11,705.21Z"/><path class="cls-3" d="M183.84,750c5,.05,10,.22,15,.11,2.65-.06,4.12.56,3.9,3.57-.21,2.71.16,5.49-4,5.41-4.66-.1-9.32,0-14,.2-2.22.1-4.22.65-4.18,3.75,0,2.77,1.34,3.37,3.74,3.3a120.07,120.07,0,0,0,13.91-1.06c2-.28,5-1.47,5.34,2.43.27,3.19-.53,5.62-4.23,6.08-16.17,2-32.33,4.11-48.67,4.26-2.35,0-4.14-.43-4.26-2.94s-1.93-5.89,2.44-6.92l9-.1h3c2.31,0,4.65.14,6.94-.1,3-.32,3.43-2.53,3.38-5.12-.06-2.77-1.68-3.21-3.95-3.18-3.65.06-7.3,0-11,0-6.91,0-6.91,0-7.34-6.65a2.57,2.57,0,0,1,2.94-2.76l4-.21h9c1.45.06,2.91.25,4.35.17,2-.12,2.69-1.47,2.79-3.32.12-2.19-.58-3.49-3-3.06-4.93,0-9.86-.24-14.77-.07-3.28.11-4.35-1.1-4.1-4.32.28-3.76.12-7.55.15-11.33,1.21-3.36,1-6.77.36-10.2,0-.4-.08-.79-.13-1.18l.06-.29c.12-.81.25-1.62.37-2.44q.09-3,.16-5.94c.06-1.33.11-2.65.16-4,.69-3.3,1.16-6.78,5.77-6.7l47.47-.21q.15,10.38.29,20.76c-.07,1-.15,2-.22,3-1.28,6.3-.59,12.68-.78,19-.19,3-2.18,3.11-4.52,3.15-4.77.07-9.55-.44-14.29.44-4,.69-4.67,2.22-2.45,5.77l.14,0A1,1,0,0,0,183.84,750Zm-12.07-16.31.42,0c-.11-.21-.22-.41-.34-.61l.09-4c1.49-5.11,1.26-10.43,1.66-15.65.55-7.28.25-7.3-7-7.31-6.87,0-6.88,0-6.86,6.93,0,1.66.11,3.32.16,5-.36,4.28-.77,8.56-1.06,12.84-.11,1.69,0,4,2,4C164.47,734.94,168.4,736.54,171.77,733.71ZM196.61,719c.1-13.26.1-13.09-9.26-13.06-3.95,0-5.36,1.66-5.36,5.31,0,4.81-.13,9.62-.22,14.43-.17,9.83.32,10.23,10.22,9.27,2.36-.23,3.54-1.07,3.84-3.55A75.58,75.58,0,0,0,196.61,719Z"/><path class="cls-3" d="M218,754.08l3-12c1-2,2.24-4.08-1.1-5.17h-8.07l-5-.11c-2.95-8.28-1.58-10.32,7-10.39,2,0,4,0,5.93,0,1.53,0,3.08-.14,3-2.31q.19-7,.38-13.91c1.32-2.64.79-5.4.49-8.14.13-2.48.25-5,.38-7.46,3.82-.09,7.7-1.18,11.42.64l.18,2.92c-1.22,7.92-.88,15.92-1.24,23.89-.14,3.2,1,4.54,4.3,4.4,4.15-.19,8.31,0,12.47-.06,3.16,0,3.42,2,3.28,4.37s.72,5-2.89,5.27a100,100,0,0,1-10.93.43c-5.63-.25-6.78.86-5.81,6.56,1.43,8.35,3,16.71,6.12,24.58,3.38,8.59,6.56,17.42,13.42,24.13.12.47.25.94.38,1.4a9.09,9.09,0,0,1,.08,5h0a10.75,10.75,0,0,0-4.28,5.84,2.64,2.64,0,0,1-3.72.19,2,2,0,0,0-1.81-2.29c-8.7-13-13.83-27.49-17.95-42.75-1.71,5.59-3.46,11.16-5.11,16.77-2.74,9.34-7.44,17.73-12.25,26.1-2.06,3.59-3.76,3.51-6.19.37-4.31-5.59-9.41-10.67-9.34-18.54,0-3,2.33-6.25,5.32-6.27,1.55,0,1.93,1.16,2,2.35a15,15,0,0,0,1.44,6.25c-.1.76-.19,1.61.86,1.69s1.14-.76,1.32-1.5c2.17-2.53,3.22-5.68,4.67-8.6l.35-.11-.22-.26c2.87-7.07,6.48-13.9,7.2-21.69C217.42,755.11,217.71,754.6,218,754.08Z"/><path class="cls-3" d="M156.8,787.5a81.09,81.09,0,0,1-2.26,14.38c-.86,3.7-3.1,3.54-6,2.83s-4.29-2.11-2.88-5.23c1.85-4.12,2.28-8.62,2.92-13,.53-3.64,1.95-4.67,5.45-4.35C158.34,782.53,156.3,785.65,156.8,787.5Z"/><path class="cls-3" d="M172.81,793.12c0,2.48-.07,5,0,7.44.08,2.2-.73,3.14-3,3.55-5.3,1-5.77.79-5.59-4.63.15-4.62.61-9.22.84-13.84.14-2.86,1.84-3.49,4.31-3.55s3.54,1.1,3.43,3.59,0,5,0,7.44Z"/><path class="cls-3" d="M184.93,800.12c-3.34.45-4.79-.56-4.44-4.37a53,53,0,0,0-.6-10.87c-.4-3.48,1.91-3.45,4.25-4,3.22-.74,3.2,1.48,3.46,3.4.52,3.76.6,7.62,1.42,11.31S188.34,800.46,184.93,800.12Z"/><path class="cls-3" d="M254.62,718c-.91,3.11-3.9,3.31-6.1,4.43-2,1-3.09-.31-3.72-2-1.4-3.89-2.7-7.8-4.12-11.68-.68-1.86-1.22-3.65,1.34-4.36s5.44-2.85,7.15.3C251.43,708.84,252.82,713.48,254.62,718Z"/><path class="cls-3" d="M193.8,716.94a47.59,47.59,0,0,1-2.3,9.67c-1.05,3.3-3.51,2.69-5.68,2-2.91-.85-1.08-3-.71-4.55.65-2.74,1.66-5.38,2.45-8.09.53-1.79.1-4.3,3.28-3.88C193.83,712.53,194,714.58,193.8,716.94Z"/><path class="cls-3" d="M162.66,722.15c-.15-1.06-.31-2.11-.47-3.16.08-.11.25-.31.23-.33a6.86,6.86,0,0,0-.59-.48l-.08-.1c0-.83.1-1.65.08-2.47-.06-2.44,1.67-3.07,3.54-3.35,2.27-.33,2.85,1.46,3.06,3.1.58,4.58,1.84,9.09,1.58,13.76l-4.18,1-2.18-2a5.71,5.71,0,0,0-.59-4C163.67,723.34,163.66,722.65,162.66,722.15Z"/><path class="cls-3" d="M819.75,706.07c1-2.94,2.28-5.84,3-8.85.52-2,1.5-2.75,3.4-2.66,1.26,2.11,3.36,2.51,5.55,2.73l1,.8c-.38,2.64-.77,5.29-1.15,7.93-.1.5-.2,1-.29,1.49-4.15,6.37-6.29,13.72-9.87,20.36l-.94,1.8a50.7,50.7,0,0,0-3.86,4.32c-1.93,2.68-.57,3.42,2.11,3.16l46.07,0c1,.22,2.37.26,2.47-.69.24-2.28-1.46-3.64-3.17-4.85l-4.84-9.69c-.37-1.87-.5-3.85-2.24-5.12a.76.76,0,0,0-.25-.71,2.06,2.06,0,0,0-.75-2c-.16-.63-.32-1.25-.47-1.87-.26-2.42-.47-4.88-3.74-5.1a49.75,49.75,0,0,0-6.9-.11c-3.82.44-5.59-.94-5.21-4.84.08-1.63.15-3.26.23-4.9l-.06.06,21.89-.15h0c1.65,4.61,1.72,9.86,5.49,13.61l1.59,4.39a6,6,0,0,0,3.55,5.48c.84,4.9,4.6,8,7.38,11.67,3.8,5-2,6.51-2.94,9.69-.78,2.58-2.72,1.58-4.7.21-2.8-1.94-2.3.92-2.37,2.29-.39,8-.7,16-1,24a149.36,149.36,0,0,1-1.91,20.37c-2,11.61-13,18.49-24.28,14.82-4.22-1.37-3-5.94-3.3-9.08-.31-3.62,3.11-2.14,4.89-2,9.93.48,11.31-.55,13-10.58s1.7-20.22,1.85-30.38c0-2.57-1-3.38-3.55-3.56-15.75-1.11-15.69-1.15-18.7,14.11s-9.38,28.74-21,39.41c-1.54,1.42-3.44,4.38-5.52,1-1.72-2.76-7.28-5.09-2.57-9.43,11-10.11,17.29-22.54,19.87-37.16,1.26-7.16,1-7.86-6-7.89-1.67,0-3.33,0-5-.07-.66,0-1.31-.21-2-.26-3.57-.26,1.07-7.39-4.14-5.45-4.37,1.62-5-2.13-7.25-3.53-2.6-1.63-2.92-3.47-.46-6A63,63,0,0,0,812,720.37a2.49,2.49,0,0,0,1.3-2.09,24.26,24.26,0,0,0,4.84-9.69A2.14,2.14,0,0,0,819.75,706.07Z"/><path class="cls-3" d="M787.14,773.31c0-8.82,0-17.64,0-26.46,0-1.24.43-3-1.21-3.44-1.19-.31-1.92,1.06-2.67,1.93-.21.25-.33.61-.58.81-2.3,1.82-2.55,6.28-6.31,5.89-1.82-.19-2.77-11.69-1.34-13.83,8.57-12.91,16.61-26.09,21.08-41.11.55-1.84,1.13-4.51,3.9-2.79,2.39,1.49,7.38.74,5.89,6.17-1.41,5.15-2.9,10.29-5.42,15a24,24,0,0,0-2.81,11.92c.06,23.81-.1,47.61,0,71.41,0,3.85-1,5.33-5,5.31s-5.69-1-5.52-5.32c.31-8.48.09-17,.09-25.47Z"/><path class="cls-3" d="M704.91,745.62l2,.06a13.21,13.21,0,0,0,6.78,0,76.64,76.64,0,0,0,15.22,0,16.59,16.59,0,0,0,7.8,0l11.29.38c0,1.39-.42,2.88.9,4,0,.7,0,1.41,0,2.11-1.17.77-.85,1.89-.7,3-2.24,9.48-5.85,18.34-12,26-2.34,2.9-2.07,4.76,1.56,6.39a146.13,146.13,0,0,0,15.73,6.3c2.88.91,3.88,2.41,1.84,5.09a7.7,7.7,0,0,0-1.28,2.14c-1.48,4.78-4.37,4.68-8.34,2.92-6.22-2.77-12.66-5.05-18.36-8.89-2.33-1.56-4.47-1.21-6.93.27a119.42,119.42,0,0,1-18.48,8.7c-3.73,1.45-6.12.68-7.62-2.81-1.44-3.33-2.7-3.57-5.11-.64-2,2.38-15.57,3.76-17.7,1.94-2.31-2-2.48-5.16-2.4-7.83s2.9-1.54,4.51-1.61c9.11-.34,9.12-.28,9.19-9.32,0-4.66-.1-9.33,0-14,.08-2.83-1.1-3.68-3.82-3.82-12.67-.67-12.59-.72-14.61,11.58a169.86,169.86,0,0,1-5.49,22.76c-1.13,3.64-2.38,4.7-5.71,1.73s-4.3-5.8-2.42-10.3c3.48-8.34,4.62-17.39,4.92-26.34.75-21.78,1.48-43.57.94-65.37,1.21-.72,1.14-1.84.94-3h34.75c-.19.55,0,.72.56.59.38,12.47-.54,25,.4,37.43a3.25,3.25,0,0,0-.1,3.06,40.37,40.37,0,0,0-.1,11,7.88,7.88,0,0,0,0,5v3.1c-1.81,9.61-1.26,19.24-.34,28.88l0,6c.52,3.78,2.42,2,4.11,1A101,101,0,0,0,710.32,788c2.95-1.46,4.1-2.62,1.62-5.9a73.05,73.05,0,0,1-9.15-16.51c-1.16-2.81-1-4.76,1.94-6,2.22.89,4.81-1.08,6.88.91,1.34,6,4.94,10.81,8.58,15.56,1.84,2.41,3.52,2.84,5.9.06a44.27,44.27,0,0,0,9.23-17.39c.35-.52,1-1,1-1.54,0-.79-.74-.94-1.46-.67a181.5,181.5,0,0,0-23-.1,16.17,16.17,0,0,0-7.06.15c-3-1.37-7,1.36-9.49-2.31a7.81,7.81,0,0,0,.15-5.16c.47-1.31.66-2.84,2.39-3.21l1.4-.49,1.58,0C702.11,746.48,703.5,746.14,704.91,745.62Zm-21.85-29c0-10.71,0-10.71-10.93-10.4a8.18,8.18,0,0,1-1,0c-3.18-.3-4.46,1.16-4.48,4.33A112,112,0,0,1,666,722.4c-.47,4.33,1.08,5.86,5.52,5.73C685.26,727.73,682.77,730,683.06,716.59Zm-.17,30.26c.13-8.54.13-8.62-7.69-8.58-10.65,0-9.06-1-9.22,10.57-.11,7.2,0,7.2,7.19,6.66.5,0,1-.15,1.49-.18C682.78,754.77,682.78,754.78,682.89,746.85Z"/><path class="cls-3" d="M695.59,735.07a1,1,0,0,0,.37-.76l.89-1.26c6.07-6.86,6.69-15.35,6.94-23.87.34-12.09.25-12.1,12.51-12.19,7,0,14,.09,21-.13,3.44-.11,4.77,1,4.67,4.55-.19,7-.08,14-.09,21,0,6.42,1.06,7.42,7.55,7.55,3.12.06,6.8-1.12,6.76,4.52,0,4.38-1.28,6.11-5.71,5.49-3.61-.5-7.3.43-10.93-.52-5.92-1.56-8.18-4-8.42-10.11q-.33-8.75-.06-17.49c.12-3.5-.75-5.05-4.67-5.05-10.59,0-11.13-.23-12.11,10-.91,9.46-4.33,17.64-9.43,25.36-1.67.3-3.29,1.58-5,.24l-3.46-3.3c.18-.58-.05-.72-.57-.54a.39.39,0,0,0-.44-.34Z"/><path class="cls-3" d="M619.74,789.94c2.2-5.59,2.19-9.91,2.38-14.22.21-4.81.92-5.18,4.81-2.78,6.64,4.09,6.72,4.11,5,11.9-1,4.39-2.07,8.75-3.36,13a8.62,8.62,0,0,1-7.54,6.43c-3.74.48-6.16-1.71-8.29-4.48-4.43-5.76-4.9-12.69-5.56-19.41A270.09,270.09,0,0,1,606.3,745c.31-9.63.32-19.27.53-28.91.06-2.65-.84-4-3.71-4-14.45.18-12-1.81-12.43,11.5-.14,4.83.23,9.69-.18,14.49s1.26,6.48,6.13,6.16c5.93-.4,5.91.19,6,6.07.06,4.59-2.54,4.83-5.78,4.49-4.42-.47-6.38.66-6.56,5.83-.44,13.16-.5,26.31-.44,39.46,0,4.63-2,5-5.74,5s-5.4-.54-5.28-4.88c.36-13.32.1-26.66.4-40,.09-4.12-1.14-5.63-5.31-5.53-5.39.14-8-4.24-5.82-9.11,1.06-2.34,3.17-1.36,4.83-1.4,6.77-.2,6.77-.14,6.81-6.94s0-13.34.22-20c.15-3.94-1.33-5.53-5.23-5.16-3.43.32-6.12.14-5.89-4.8.21-4.6,1.47-6.38,6.4-6.25,12.32.32,24.66,0,37,0,6.69,0,6.67,0,6.59,6.93-.26,22-1.49,44-1,65.94A64.7,64.7,0,0,0,619.74,789.94Z"/><path class="cls-3" d="M561.74,782.36c0,5.5,0,11,0,16.5,0,2.22-.72,3.76-3.1,3.36s-6.1,1.83-6.68-2.1-2.83-3.9-5.61-3.85c-1.66,0-3.34.11-5,0-3-.19-4.76.74-4.64,4.16.22,6-4.44,3.31-7.18,3.73-4,.61-2.92-2.27-2.9-4.52.1-10.83.24-21.66.11-32.49,0-3.63,1.11-5.07,4.87-5,8.66.17,17.33.1,26-.07,3.18-.07,4.54.94,4.43,4.26-.19,5.33,0,10.67,0,16ZM536.91,779c0,8,0,8,7.89,8.08,7.05,0,7.05,0,7.09-9.27,0-5.91,0-5.65-10.22-6C535.15,771.56,537.37,776.07,536.91,779Z"/><path class="cls-3" d="M545.77,717c-6,0-12-.15-17.92,0-3.62.13-4-1.76-3.94-4.64s.19-5.42,4.13-5a29.62,29.62,0,0,0,3,0c8.94,0,9,0,6.19-8.48-.73-2.19-.74-3.24,2-3.71,7.27-1.27,7.61-1.34,9.76,6,1.35,4.61,3.55,7.22,8.73,6.26a30.48,30.48,0,0,1,5-.06c2.79-.06,5.38-.2,5.26,3.94-.1,3.62-.63,6-5.19,5.79-5.63-.32-11.29-.08-16.93-.08Z"/><path class="cls-3" d="M544.34,734.94c-4.49,0-9-.1-13.49,0-3.73.11-3.8-2.2-3.79-4.93s.27-4.87,3.94-4.82c9.33.14,18.65.11,28,0,3,0,4.21,1,4,4.08s.26,5.85-4.16,5.7C554,734.81,549.17,734.94,544.34,734.94Z"/><path class="cls-3" d="M545.43,743c4.82,0,9.64.08,14.46,0,2.9-.06,3.8,1.4,3.72,4s-.07,5.15-3.77,5.13c-10-.06-19.94-.12-29.91-.08-3.49,0-2.92-2.39-2.95-4.49s-.34-4.55,3-4.54C535.13,743,540.28,743,545.43,743Z"/><path class="cls-3" d="M302.9,699.25l1.93-.23c3.23.18,6.13-1.31,9.24-1.78,1.25-.19,2.41-.88,3.59.56,3.41,4.18,2.28,8-2.94,9.4-1.92.52-3.85,1.07-5.78,1.54-1.37.33-2.77.82-2.85,2.37-.26,5-1.73,10.54.39,14.77,1.67,3.31,7,1,10.72,1.43a7.52,7.52,0,0,0,1.5,0c2.95-.21,4.2,1.09,4.2,4.1s-.24,5.41-4,5.4c-3.17,0-6.33,0-9.5.06-1.32,0-2.8-.16-3.38,1.45-.49,1.38.1,2.54,1,3.64q7.45,9,14.85,18.12c0,.65-.09,1.3-.14,1.94-1.73.69-2.13,2.47-3.08,3.79-1.72,2.41-3,3.41-4.69-.16a79.54,79.54,0,0,0-4.59-7.66c-.85-1.4-1.58-3.71-3.24-3.34-2.3.51-1,3.08-1.34,4.72a12.76,12.76,0,0,0-.08,2.48c-.36,12.78-.81,25.55-1,38.33-.07,4.12-2.1,4.8-5.68,4.86-4,.08-4.07-2.1-4-5,.1-6,0-12-.05-17.92,0-1,.05-2,.08-3,1.52-7.54,1-15.06.49-24-4.82,7.54-8.63,13.9-12.85,20-4.63,6.66-5.26,6.54-8.54-.15-.13-.63-.26-1.26-.38-1.89a8.52,8.52,0,0,1,2.65-6.1c2.24-2.37,4.57-4.7,5.72-7.87a.31.31,0,0,0,.14-.47,4.39,4.39,0,0,0,2.94-4.31l-.18-.25.16.25c2.31-.42,2.74-2.25,3.13-4.12a3.13,3.13,0,0,0,1.08-2.52,4.68,4.68,0,0,0,2.37-2.45c1.16-2.36,3.58-4.89,2.48-7.26-1.18-2.54-4.51-.76-6.86-1.07a33.13,33.13,0,0,0-4-.09c-7-.08-7-.08-7.51-6.8.05-.63.11-1.26.16-1.89l.94-.93,1.9-.13c4,.06,8-.15,12,.25,5.14.53,6.62-1.51,6.45-6.5-.31-9.35-.05-9.36-9.24-8.85-7.23.39-8.42-.81-7.88-8.08a7.44,7.44,0,0,1,.37-1.44h1.26a3.24,3.24,0,0,0,4.13-.28l1.94-.18c1.76.17,3.55.49,5.12-.72l2.86-.27A19.2,19.2,0,0,0,302.9,699.25Z"/><path class="cls-3" d="M321.94,777.83c-.08-.57-.17-1.14-.25-1.71s.31-1,.16-1.46c-1.62-4.68-.28-6.88,4.94-6.67a9.54,9.54,0,0,0,6.08-1.76l2-.19c6.44-.36,12.86-.84,19.06-2.82l1.94-.13c5.11.26,6.82-2.24,5.74-7,0-1.32,0-2.65.07-4,0-.66.09-1.33.13-2l.21-8c1.81-6.32.57-12.79.91-19.19.5-9.57-.69-19.22,1.1-28.75l-.05,0c10.75.24,9.89-1.68,9.52,10-.48,15.28-.87,30.54-.59,45.82,0,2-.05,4-.08,6,.17,4.74,1.13,5.17,7.14,3.2l1.73.1c.12,1,.17,2,.38,3,1.4,6.59,1.42,6.65-5.24,7.86-3.43.61-5.46,2.08-5,5.94.27,2.29.21,4.62.31,6.93l-.33,15c-1.67,2.12-.48,4.66-1,6.95l0,0-9.8-.1,0,.05c-.12-2-.23-3.93-.34-5.9l.27-16.93c2.18-8.34,1.2-9.29-7-8.33C343.27,775,332.78,777.85,321.94,777.83Z"/><path class="cls-3" d="M328.21,739.94c-.8-2.74,2.41-3.49,2.81-5.64l0,0a2,2,0,0,0,2.12-1.9l-.3-.07.29.09,2.76-.3a11,11,0,0,0,4.55,2.25c4.34,3.83,8.79,7.52,14,10.08l.24-.24-.2.27c1.28,3.35-2.36,4.6-3,7.11l-.16.15c-2.68,2.28-5.37,2.2-8.07,0l-.05,0c-1.44-2.64-3.28-4.84-6.32-5.71l-.22-.19-.29,0c-1.77-2.67-4.46-4-7.33-5.13Z"/><path class="cls-3" d="M350.77,724.93l-2.77-.28c-.73-1.21-1.28-2.63-3-2.73v0a8.07,8.07,0,0,0-5-4.06l-.24-.18-.31,0a2.45,2.45,0,0,0-2.27-1.93l-.27.25.26-.26A2,2,0,0,0,334.9,714L333,712.75c-1.21-1.35-2.46-2.68-.93-4.58a3.63,3.63,0,0,0,2.13-2.52l1-1.23.14.07c3.46-1.29,6,1.77,9.1,2l.11.07c.61,2,2.54,2.45,3.95,3.46C357.76,716.62,357.79,716.59,350.77,724.93Z"/><path class="cls-3" d="M494.81,783.05l-.27,2.93c-5.44,2-11.3.16-17,2.61l17,4,2.27.64c2.41,2.21,6.9.93,8.24,4.92-.18.84-.35,1.68-.53,2.52-2,5.49-6,3.59-9.71,2.67l-1.87-.58c-1.12-1.06-2.55-.89-3.91-1l-2.12-.92c-2.73-1.7-5.93-1.91-8.91-2.82-4.37-1.33-9.14-1.32-13.12-4,.44-.95.88-1.91,1.31-2.86,1.06-.79,1.93-1.73,1.41-3.13s-1.63-1.21-2.75-.84a33.12,33.12,0,0,0-9.06,0c-4.32-.09-8.64-.19-13-.25-2.67,0-4,1-2.31,3.61,1.94,3,.24,4.15-2.23,5.09A193,193,0,0,1,416,802.92c-9.23,2.26-9.23,2.29-14.05-4.91,0-.58,0-1.15,0-1.73,1.07-.17,2.24-.06,3-1.14l1.95-.21c8.66-1.56,17.55-2.37,25.15-7.72H413.83l-1.78-.52-.12-2.59q0-4.53.07-9.06l0-1.92.09-5c1.25-1.43.74-3.18.77-4.79.11-7,.38-14,.11-21-.17-4.3,1.45-5.49,5.48-5.19s8.32.08,12.48,0c1.87,0,3.88-.54,2.17-2.81-3.38-4.49.2-4.62,3-5.48,8.37-2.57,16.17-6.19,22.29-12.7,1.08-1.16,3-2.23,2.15-4.12-.74-1.69-2.68-.65-4.06-1-7.16-1.72-11.41,3.59-16.22,7-4.19,3-7.25,2.81-10.57-1-1.43-1.62-1.7-2.32.34-3.73,3.76-2.61,8.13-4.43,11-8.19,3.72-2.09,6.13-5.54,8.84-8.65,1.28-1.47,2.37-2.72,4.49-2.25.69,2.48,6.18,1.25,4.48,5.2s.4,3.8,3,3.7c2.3-.1,4.61-.24,6.91-.36l3.1,0,.46.19.48-.12,5,.09a52.2,52.2,0,0,0,12.92-.07l2.11,0a19,19,0,0,0,6.93.1l2.76.11a25.86,25.86,0,0,1,0,8.6l.18.27-.2-.25a13.69,13.69,0,0,0-6.16,5.95l-1.72,1a2.54,2.54,0,0,0-2.13,1.93l0,.05c-3.37,1.61-6.59,2.23-9-1.59-2.49-4,2.45-3.22,3.39-5.07.57-1.12,1.43-1.89-.15-2.76-4.39-2.4-14.22.76-16.94,5.32-1.53,2.56-1,3.77,1.91,4.57,10.38,2.9,20.71,6,31.05,9,1.3.27,1.44,1.34,1.65,2.37l-.87,1.31-.12,0c-2.62.73-2.57,4.53-5.25,4.88-3,.39-3.31,2.22-3.32,4.54Q494.87,763.15,494.81,783.05ZM453.8,772v0c-9,0-17.95,0-26.92,0-2.57,0-4.14.79-4.19,3.64s1.57,3.67,4.11,3.67q26.67,0,53.34,0c2.64,0,4-.76,4-3.66s-1.25-3.67-3.93-3.64C471.41,772.06,462.61,772,453.8,772Zm.11-21v.07c7.83,0,15.66.19,23.48-.11,2.66-.1,7.29,2.08,7.38-3.13s-4.77-3.39-7.27-3.43c-16.46-.32-32.92-.17-49.39-.2-2.47,0-4.95.14-5.08,3.36-.15,3.42,2.55,3.41,4.9,3.42C436.59,751.07,445.25,751,453.91,751Zm-.06,13.36v0q13.45,0,26.92,0c2.18,0,4-.17,3.94-3.11-.08-2.74-1.7-3.19-4-3.18q-26.67,0-53.35,0c-2.34,0-4.39.24-4.48,3.3-.1,3.5,2.46,3,4.52,3C436.23,764.43,445,764.4,453.85,764.4ZM446,735.8l.3.93h42c.08-.43.17-.85.25-1.28a142.25,142.25,0,0,0-26.46-8.51,2.15,2.15,0,0,0-1.45.21C455.8,730,450.92,732.91,446,735.8Z"/><path class="cls-3" d="M418.09,720.56a26.87,26.87,0,0,1,2.94-.48c1.79-.11,4.11-2.43,4.94,1.48.62,2.93,2.21,5.66-1.83,7.49a116.9,116.9,0,0,1-14.2,5.82c-6.91,2.09-7.76,1.74-9.64-5.32a18.23,18.23,0,0,1-.31-2.45l.92-.76c5.79-1.16,11.71-1.93,16.55-5.78A.64.64,0,0,0,418.09,720.56Z"/><path class="cls-3" d="M420.18,700.66a18.94,18.94,0,0,0,2.3,1.82c4.95,2.83,5.19,7.29.68,10.75-1.22.94-2.08.58-3.15,0-2-1.08-4.09-2.11-6.13-3.17a.66.66,0,0,0-.64-.25c-2.06-2.87-5.35-3.62-8.37-4.83a1.93,1.93,0,0,0-.11-.92c1.31-1.5,2.94-2.79,3.09-5l.95-1.17c3.66-.72,6.53,2.2,10,2.16Z"/><path class="cls-3" d="M994.89,763.71c0,9.83,0,19.66,0,29.49,0,6.54-2.2,8.88-8.57,10.07-6,1.12-12,.51-17.95.5-5.29,0-4.41-4.77-4.74-7.83-.37-3.4,2.88-1.82,4.46-1.91,3.81-.22,7.66,0,11.49.11,3.11.06,4.51-1.37,4.48-4.55-.13-12.91,1.17-10.37-10.08-10.49-12.32-.14-24.65.09-37-.09-3.92,0-5.38,1.29-5.2,5.22.25,5.15-.18,10.34.14,15.48.25,4.24-2,4.61-5.23,4.39-2.86-.19-5.91.79-5.84-4.23.23-14.65,0-29.32-.14-44,0-1.58.72-3.72-1-4.58s-2.82,1.28-4.08,2.2c-3,2.16-5.88,4.37-8.66,6.74-3.62,3.08-5.35.08-7.17-2.16s-3.82-4-.4-7c6.72-5.81,14.48-10.36,20.27-17.29,3.3-4,6.85-7.69,9.88-11.88,2.22-3,1.29-4.08-2.12-4.06-7.33,0-14.66,0-22,0-6,0-6.55-.81-6.43-6.58.06-3.09,1.34-4,4.25-4,9.5.1,19-.23,28.49.13,5.17.2,8.2-1.42,9.46-6.54,1.08-4.42,3.6-6.54,8.68-5.77,4.11.62,5,2,3.76,5.79-2.07,6.31-1.94,6.38,4.52,6.41,13.66,0,27.32.23,41,0,4.8-.09,4.79,2.42,4.92,5.93.14,3.75-1.14,4.83-4.87,4.79-16.15-.2-32.31-.12-48.47-.11-4.4,0-9.35,4.09-10.3,8.27-.41,1.81.8,1.76,1.91,2.14,2.65.88,5.27.13,7.91.11,13.32-.08,26.65,0,40-.06,3.51,0,4.57,1.5,4.52,4.87-.15,10.16-.06,20.32-.06,30.48Zm-36.55,5.76v-.07c6.83,0,13.66-.09,20.48,0,3.23.06,5.61-.26,5.16-4.48-.36-3.35.91-7.14-4.89-7-14.32.26-28.64.21-43,0-5.21-.06-4.15,3.4-4.39,6.44-.28,3.47.68,5.27,4.62,5.15C943.69,769.31,951,769.47,958.34,769.47Zm-.83-20.39c6.81,0,13.62,0,20.43,0,5.72,0,6-.57,6-6.36,0-5.07-3.25-4.21-6.51-4.18-13.43.11-26.86.19-40.28-.07-3.4-.06-5.5,0-5.43,4.15.06,3.5-.32,6.73,4.89,6.54C943.55,748.89,950.53,749.08,957.51,749.08Z"/></svg>