<svg xmlns="http://www.w3.org/2000/svg" width="1204.958" height="161.884" viewBox="0 0 1204.958 161.884">
  <g id="Group_1" data-name="Group 1" transform="translate(-154.532 -474.265)">
    <path id="Path_9" data-name="Path 9" d="M390.3,578.24l-1.11,33.67c-.19,5.85-.48,12-3.64,17-5.58,8.7-20.08,9.42-26.51,1.33-4.77-6-4.73-14.42-4.45-22.09l1.71-48.59c.41-11.76.65-24.27-5.4-34.37-9.33-15.59-33.74-19.16-47.14-6.88C291.19,529.78,290.36,549,290.41,566l.12,39.79c0,9.32-.45,19.84-7.38,26.06s-19.68,4.71-24.91-3.21c-3.76-5.71-3.66-13-3.42-19.87l1.9-54.69c.28-8,.53-16.22-2.24-23.72A30.94,30.94,0,0,0,205,517.84c-13.07,11.51-14.12,31.16-14.2,48.58L190.62,605c0,7.45-.16,15.24-3.68,21.8-6.13,11.41-25.35,13.18-30.68.05-2-4.82-1.8-10.2-1.62-15.4l4-111.71c.2-5.42.46-11.09,3.15-15.81,4.72-8.29,17.15-10.87,24.79-5.15,1.58,1.18,3,2.66,4.83,3.38,3.52,1.38,7.4-.42,10.89-1.88,22.29-9.31,49.75-4.65,67.72,11.5,1.6,1.43,3.34,3,5.49,3.11s4.1-1.53,5.8-3c16.74-14,40.39-19.67,61.51-14s39,22.57,45.17,43.54c3.73,12.67,3.33,26.13,2.9,39.32Z" fill="#47afa7"/>
    <path id="Path_10" data-name="Path 10" d="M1297.18,568.73l-46-.47a6.221,6.221,0,0,0-3.84.81c-2.15,1.6-1.35,5-.15,7.37,10.57,21,38,31.77,60.07,23.43,6.47-2.44,12.42-6.28,19.13-7.92s14.88-.39,18.68,5.38c3,4.53,2.4,10.73-.27,15.45s-7.09,8.18-11.68,11.06c-28.15,17.66-70.22,16.88-95.12-6s-37.17-58.81-24.07-91.38c12.69-31.52,48.17-52.33,81.8-47.46s61.9,35.34,63.7,69.27c.38,7-.91,15.2-7,18.8-3.52,2.1-7.85,2.12-12,2.08ZM1286.86,541v.41h38.43c5.69,0,5.92-.29,3.17-5.48-7-13.28-18.48-21.18-32.47-25.48-21.39-6.58-44.41,4.79-51.66,25.16-1.8,5.07-1.61,5.38,3.6,5.39Z" fill="#47afa7"/>
    <path id="Path_11" data-name="Path 11" d="M458.18,592.8a86.118,86.118,0,0,1-7.77-24c-4.35-27.55,6.48-57.12,27.91-75S531.08,470.67,557,481s45.19,35.93,47.4,63.73c.42,5.25.14,10.94-3,15.15-4.73,6.28-13.76,6.87-21.61,6.91l-89.7.44c-1.43,0-3.06.11-4,1.23-1,1.28-.52,3.16.12,4.68,9.89,23.64,40.78,35.84,64.15,25.33,5.73-2.58,11-6.28,17-8.16s13.33-1.49,17.55,3.18c3.88,4.29,3.91,11.1,1.36,16.29s-7.21,9-12,12.22c-22.24,14.6-53.57,18.28-78.54,8.69C479.54,624.47,466.26,609.38,458.18,592.8Zm71.39-53.11v-.17c13.5,0,27-.1,40.49.06,4,0,4.67-1.23,3.11-4.66-4.6-10.15-12.36-17.15-21.94-22.4-24.06-13.21-54.08-3.42-64.47,21-2.46,5.8-2.27,6.13,3.83,6.13Q510.09,539.71,529.57,539.69Z" fill="#47afa7"/>
    <path id="Path_12" data-name="Path 12" d="M1029.1,532.7l-.95-28.12c-.23-7-.32-14.53,3.65-20.29,5.8-8.43,20-9,26.44-1,4.62,5.77,4.86,13.79,4.88,21.19l.15,48.65c0,11.86.28,24.44,6.67,34.44a31.46,31.46,0,0,0,54.82-3.21c4.47-9.21,4.19-19.92,3.81-30.15l-1.64-45.09c-.25-6.78-.46-13.77,1.93-20.12s8.07-12,14.85-12.11,12.76,5.26,15.4,11.55,2.68,13.31,2.68,20.13v46.82c0,15.3-.1,31.12-6.25,45.13-7.79,17.75-25.11,30.61-44.13,34.37-31.1,6.15-67.32-10.77-77-42.08-3.66-11.89-4.11-24.5-4.53-36.94Z" fill="#47afa7"/>
    <path id="Path_13" data-name="Path 13" d="M894,593.63l2,1.09a17.127,17.127,0,0,0,2.79,2c16.95,7.73,33.13,5.71,48.36-4.42,9-6,19.22-5,25.27,3,5.47,7.29,3.37,18.79-5.1,24.65-20.49,14.17-42.91,19-67.44,13.27-10.58-2.47-19.63-8-28.93-13.18h0a10.709,10.709,0,0,0-1.52-1.92,89,89,0,0,1-18.89-20.94c-14-21.68-15.68-44.81-7.83-68.59,13.19-40,58.86-62,98.74-48.55,9.9,3.33,18.59,8.8,27.42,14.1h0c1.14,2,2.41,4,3.41,6.06,4.53,9.52.17,20.17-9.55,23-6.24,1.84-11.65-.23-16.85-3.87-11.76-8.25-24.83-11.19-38.9-8-19.77,4.48-37.76,23.4-34.88,49.54C873.65,575.88,881.87,585.92,894,593.63Z" fill="#47afa7"/>
    <path id="Path_14" data-name="Path 14" d="M676.29,555.37l.74-57.79c.07-5.82.3-12.09,3.87-16.68,4.31-5.53,12.63-6.82,19.13-4.2s11.28,8.42,14.26,14.75c8-6.27,16.14-12.68,25.81-15.66s21.32-1.82,28.3,5.5,6.43,21.39-2.53,26.11c-4,2.08-8.62,2.11-13,2.86-17.62,3-31.31,18.08-37.39,34.89s-5.79,35.18-4.63,53c.6,9.33,1.3,19.24-3.12,27.48-3.92,7.31-12.68,11.56-20.65,9-10.06-3.3-11.6-13.75-11.48-23Z" fill="#47afa7"/>
  </g>
</svg>
